# xmcd
#
# Track frame offsets: 
#        150
#        16050
#        33700
#
# Disc length: 639 seconds
#
# Revision: 0
# Processed by: cddbd v1.5.2PL0 Copyright (c) Steve Scherf et al.
# Submitted via: ExactAudioCopy v0.99pb3
#
DISCID=1a027d03
DTITLE=Skunk Anansie - You Follow me Down
DYEAR=1999
DGENRE=Progressive Rock
TTITLE0=You'll Follow me Down
TTITLE1=Hedonism (Just Because You Feel Good)
TTITLE2=The Skank Heads
EXTD=
EXTT0=
EXTT1=
EXTT2=
PLAYORDER=
